<?xml version="1.0" encoding="UTF-8"?>
<svg id="Laag_1" data-name="Laag 1" xmlns="http://www.w3.org/2000/svg" viewBox="0 0 338.4 179.13">
  <defs>
    <style>
      .cls-1 {
        fill: #daad56;
      }

      .cls-1, .cls-2, .cls-3, .cls-4 {
        fill-rule: evenodd;
      }

      .cls-2 {
        fill: #4b595d;
      }

      .cls-3 {
        fill: #478898;
      }

      .cls-4 {
        fill: #8d7970;
      }
    </style>
  </defs>
  <path class="cls-2" d="M133.41,121.94h61.39c-3.12,1.68-6.38,3.12-9.77,4.28h-41.85c-3.39-1.16-6.66-2.6-9.77-4.28ZM114.55,106.49h99.12c-1.23,1.48-2.53,2.91-3.91,4.27h-91.32c-1.36-1.37-2.67-2.79-3.9-4.27Z"/>
  <path class="cls-3" d="M103.65,87.79h120.92c-.9,2.42-1.96,4.78-3.15,7.06h-114.63c-1.19-2.28-2.24-4.64-3.15-7.06ZM99.7,69.43h128.82c-.15,2.39-.43,4.75-.85,7.06h-127.11c-.41-2.31-.7-4.67-.86-7.06Z"/>
  <path class="cls-4" d="M228.5,60.57H99.71c.17-2.39.47-4.74.88-7.05h127.03c.41,2.31.71,4.67.88,7.05ZM225.23,44.33h-122.25c1.16-3.42,2.6-6.71,4.3-9.84h113.65c1.7,3.13,3.14,6.42,4.3,9.84Z"/>
  <path class="cls-1" d="M217.2,28.41h-106.19c2.46-3.55,5.27-6.85,8.38-9.83h89.43c3.11,2.98,5.92,6.28,8.38,9.83ZM202.44,13.19h-76.66c10.72-7.93,23.98-12.62,38.33-12.62s27.61,4.69,38.33,12.62Z"/>
  <path class="cls-2" d="M6.15,122.37h83.19v-3.34h4.42v7.76H.12v-3.32L84.57,4.42H7.68v3.33H3.44V0h86.98v3.68L6.15,122.37ZM338.13,130.12h-3.98L252.05,5.87v120.92h-4.42V4.42h-3.15V0h8.99l80.24,121.66V0h4.42v130.12Z"/>
  <path class="cls-1" d="M85.02,157.88l14.76,18.6v-18.6h1.62v21.25h-1.63l-14.81-18.61v18.61h-1.63v-21.25h1.69ZM245.31,159.51h-6.42v18h6.42c1.23,0,2.4-.23,3.52-.7,1.08-.45,2.04-1.09,2.87-1.92.83-.83,1.48-1.78,1.93-2.86.47-1.11.71-2.29.71-3.51s-.24-2.4-.71-3.51c-.45-1.08-1.1-2.03-1.93-2.86-.83-.83-1.79-1.47-2.87-1.92-1.12-.47-2.29-.7-3.52-.7ZM237.27,157.88h8.13c1.43,0,2.81.28,4.12.84,1.27.54,2.39,1.3,3.37,2.28.98.98,1.74,2.11,2.27,3.38.56,1.31.83,2.69.83,4.12s-.28,2.82-.83,4.14c-.54,1.27-1.3,2.4-2.28,3.38-.98.98-2.11,1.74-3.38,2.28-1.32.56-2.69.83-4.14.83h-8.1v-21.25ZM192.57,179.13l9.92-21.25h1.25l10,21.25h-1.79l-3.06-6.48h-11.51l-3.01,6.48h-1.79ZM198.15,171.03h9.96l-4.98-10.69-4.98,10.69ZM168.39,159.48h-5.74v9.8h5.74c1.33,0,2.48-.48,3.43-1.43.96-.96,1.43-2.11,1.43-3.46s-.48-2.5-1.43-3.47c-.95-.97-2.1-1.45-3.43-1.45ZM167.54,170.88h-4.89v8.25h-1.6v-21.25h7.34c.88,0,1.72.17,2.53.51.78.33,1.47.8,2.07,1.4.6.6,1.07,1.29,1.4,2.07.34.81.51,1.65.51,2.53s-.17,1.71-.5,2.51c-.33.77-.78,1.45-1.38,2.05-.59.59-1.27,1.06-2.04,1.39-.52.22-1.06.38-1.61.46l4.8,8.33h-1.87l-4.76-8.25ZM122.12,157.88h8.13c1.43,0,2.81.28,4.12.84,1.27.54,2.39,1.3,3.37,2.28.98.98,1.74,2.11,2.27,3.38.56,1.31.84,2.69.84,4.12s-.28,2.82-.84,4.14c-.54,1.27-1.3,2.4-2.28,3.38-.98.98-2.11,1.74-3.38,2.28-1.32.56-2.69.83-4.14.83h-8.1v-21.25ZM130.16,159.51h-6.42v18h6.42c1.23,0,2.4-.23,3.52-.7,1.08-.45,2.03-1.1,2.87-1.92.83-.83,1.48-1.78,1.93-2.86.47-1.11.71-2.29.71-3.51s-.23-2.4-.71-3.51c-.46-1.08-1.1-2.03-1.93-2.86-.83-.83-1.79-1.47-2.87-1.92-1.12-.47-2.29-.7-3.52-.7ZM179.73,177.53h12.07v1.6h-13.67v-21.25h1.59v19.65ZM105.09,157.88h13.64v1.62h-12.04v7.94h11.21v1.63h-11.21v8.43h12.04v1.63h-13.64v-21.25ZM217.2,157.88l14.76,18.6v-18.6h1.62v21.25h-1.64l-14.81-18.61v18.61h-1.63v-21.25h1.69ZM144.01,157.88h13.64v1.62h-12.04v7.94h11.21v1.63h-11.21v8.43h12.04v1.63h-13.64v-21.25Z"/>
  <path class="cls-2" d="M0,133.37h13.64v1.6H1.6v7.6h11.21v1.6H1.6v8.06h12.04v1.6H0v-20.47ZM338.4,133.37v1.58h-7.71v18.89h-1.6v-18.89h-7.69v-1.58h17ZM278.84,133.37h13.64v1.6h-12.04v7.6h11.21v1.6h-11.21v8.06h12.04v1.6h-13.64v-20.47ZM230.56,133.37l14.76,17.89v-17.89h1.62v20.47h-1.63l-14.82-17.9v17.9h-1.63v-20.47h1.69ZM123.13,133.37h13.64v1.6h-12.04v7.6h11.21v1.6h-11.21v8.06h12.04v1.6h-13.64v-20.47ZM94.87,142.34h11.23v1.27c0,1.39-.28,2.72-.85,3.99-.54,1.22-1.31,2.31-2.3,3.25-.99.94-2.12,1.67-3.39,2.19-1.32.54-2.7.8-4.14.8s-2.81-.27-4.13-.8c-1.27-.52-2.39-1.25-3.38-2.19-.98-.94-1.74-2.03-2.28-3.25-.56-1.27-.84-2.6-.84-3.99s.28-2.72.84-3.99c.54-1.23,1.3-2.31,2.28-3.25.98-.94,2.11-1.67,3.38-2.19,1.31-.54,2.69-.8,4.13-.8s2.8.26,4.1.78c1.26.51,2.39,1.22,3.37,2.15l.43.41-1.19,1.06-.36-.34c-.83-.78-1.78-1.39-2.84-1.82-1.11-.45-2.28-.67-3.5-.67s-2.41.23-3.53.68c-1.08.44-2.04,1.06-2.87,1.86-.83.8-1.47,1.71-1.93,2.75-.47,1.07-.7,2.19-.7,3.37s.23,2.3.7,3.37c.45,1.03,1.1,1.95,1.93,2.75.83.8,1.79,1.42,2.87,1.86,1.12.45,2.3.68,3.53.68s2.4-.23,3.52-.7c1.08-.45,2.03-1.08,2.87-1.89.83-.81,1.47-1.73,1.93-2.76.42-.95.65-1.93.7-2.95h-9.56v-1.63ZM211.72,152.26c1.24,0,2.42-.23,3.54-.68,1.08-.44,2.04-1.05,2.88-1.85.83-.8,1.48-1.71,1.93-2.75.47-1.07.7-2.2.7-3.38s-.23-2.31-.7-3.38c-.45-1.04-1.1-1.95-1.93-2.75-.83-.8-1.79-1.42-2.88-1.85-1.12-.45-2.3-.68-3.54-.68s-2.42.22-3.54.68c-1.08.44-2.04,1.05-2.87,1.85-.83.8-1.47,1.71-1.92,2.75-.47,1.07-.7,2.2-.7,3.38s.23,2.31.7,3.38c.45,1.03,1.09,1.95,1.92,2.75.83.8,1.78,1.41,2.87,1.85,1.12.45,2.3.68,3.54.68ZM21.94,133.37l14.76,17.89v-17.89h1.63v20.47h-1.63l-14.82-17.9v17.9h-1.63v-20.47h1.69ZM72.84,134.95h-5.75v9.38h5.75c1.34,0,2.48-.46,3.43-1.37.95-.91,1.42-2.01,1.42-3.3s-.47-2.39-1.42-3.31c-.95-.93-2.1-1.39-3.44-1.39ZM316.04,150.85c-.98.94-2.11,1.68-3.38,2.19-1.32.53-2.7.8-4.14.8s-2.81-.27-4.13-.8c-1.27-.52-2.39-1.25-3.38-2.19-.98-.94-1.74-2.03-2.28-3.25-.56-1.27-.84-2.6-.84-3.99s.28-2.72.84-3.99c.54-1.23,1.3-2.31,2.28-3.25.98-.94,2.11-1.67,3.38-2.19,1.31-.54,2.69-.8,4.13-.8s2.8.26,4.1.78c1.26.51,2.39,1.22,3.37,2.15l.43.41-1.19,1.06-.36-.34c-.83-.78-1.78-1.39-2.84-1.82-1.11-.45-2.28-.67-3.5-.67s-2.41.23-3.53.68c-1.08.44-2.04,1.06-2.87,1.86-.83.8-1.47,1.71-1.93,2.75-.47,1.07-.7,2.19-.7,3.37s.23,2.3.7,3.37c.45,1.03,1.1,1.95,1.93,2.75.83.8,1.79,1.42,2.87,1.86,1.12.45,2.3.68,3.53.68s2.39-.23,3.52-.7c1.09-.45,2.04-1.08,2.87-1.88l.39-.38,1.13,1.17-.39.38ZM255.55,133.37l14.76,17.89v-17.89h1.62v20.47h-1.63l-14.82-17.9v17.9h-1.63v-20.47h1.69ZM211.72,133.37c1.44,0,2.82.27,4.14.8,1.27.51,2.4,1.24,3.38,2.18.98.94,1.75,2.03,2.29,3.25.56,1.27.84,2.6.84,4s-.28,2.73-.84,4c-.54,1.23-1.3,2.31-2.29,3.25-.98.94-2.11,1.67-3.38,2.18-1.32.53-2.7.8-4.14.8s-2.82-.26-4.14-.8c-1.27-.52-2.4-1.24-3.38-2.18-.98-.94-1.74-2.03-2.27-3.25-.56-1.27-.83-2.6-.83-4s.28-2.73.83-4c.54-1.23,1.3-2.31,2.27-3.25.98-.94,2.1-1.67,3.38-2.18,1.31-.53,2.69-.8,4.14-.8ZM194.93,150.85c-.98.95-2.11,1.68-3.39,2.19-1.32.53-2.7.8-4.14.8s-2.81-.27-4.13-.8c-1.27-.52-2.39-1.25-3.38-2.19-.98-.94-1.74-2.03-2.28-3.25-.56-1.27-.84-2.6-.84-3.99s.28-2.72.84-3.99c.54-1.23,1.3-2.31,2.28-3.25.98-.94,2.11-1.67,3.38-2.19,1.31-.54,2.69-.8,4.13-.8s2.8.26,4.1.78c1.26.51,2.39,1.22,3.37,2.15l.43.41-1.19,1.06-.36-.34c-.83-.78-1.78-1.39-2.85-1.82-1.11-.45-2.28-.67-3.5-.67s-2.4.23-3.53.68c-1.08.44-2.04,1.06-2.87,1.86-.83.8-1.47,1.71-1.93,2.75-.47,1.07-.7,2.19-.7,3.37s.23,2.3.7,3.37c.45,1.03,1.1,1.95,1.93,2.75.83.8,1.79,1.42,2.87,1.86,1.12.45,2.3.68,3.53.68s2.39-.23,3.52-.7c1.09-.45,2.05-1.08,2.87-1.88l.39-.38,1.13,1.17-.39.38ZM112.97,153.84v-20.47h1.6v20.47h-1.6ZM72,145.91h-4.9v7.94h-1.6v-20.47h7.35c.88,0,1.72.17,2.52.49.78.32,1.47.77,2.07,1.35.6.58,1.07,1.24,1.4,2,.35.78.52,1.59.52,2.44s-.17,1.65-.51,2.42c-.33.74-.79,1.4-1.38,1.98-.59.57-1.27,1.02-2.04,1.34-.51.21-1.04.36-1.59.44l4.8,8.01h-1.89l-4.75-7.94ZM45.24,133.37h13.64v1.6h-12.04v7.6h11.21v1.6h-11.21v8.06h12.04v1.6h-13.64v-20.47Z"/>
</svg>